<?xml version="1.0" encoding="UTF-8" standalone="no"?>
<!-- Created with Inkscape (http://www.inkscape.org/) -->

<svg
   width="210mm"
   height="297mm"
   viewBox="0 0 210 297"
   version="1.1"
   id="svg1"
   sodipodi:docname="drawing.svg"
   inkscape:version="1.4.2 (ebf0e940d0, 2025-05-08)"
   inkscape:export-filename="next-button.png"
   inkscape:export-xdpi="96"
   inkscape:export-ydpi="96"
   xmlns:inkscape="http://www.inkscape.org/namespaces/inkscape"
   xmlns:sodipodi="http://sodipodi.sourceforge.net/DTD/sodipodi-0.dtd"
   xmlns:xlink="http://www.w3.org/1999/xlink"
   xmlns="http://www.w3.org/2000/svg"
   xmlns:svg="http://www.w3.org/2000/svg">
  <sodipodi:namedview
     id="namedview1"
     pagecolor="#ffffff"
     bordercolor="#000000"
     borderopacity="0.25"
     inkscape:showpageshadow="2"
     inkscape:pageopacity="0.0"
     inkscape:pagecheckerboard="0"
     inkscape:deskcolor="#d1d1d1"
     inkscape:document-units="mm"
     inkscape:zoom="4.2610022"
     inkscape:cx="337.59664"
     inkscape:cy="419.50225"
     inkscape:window-width="1709"
     inkscape:window-height="1091"
     inkscape:window-x="0"
     inkscape:window-y="0"
     inkscape:window-maximized="0"
     inkscape:current-layer="layer1"
     showguides="true" />
  <defs
     id="defs1">
    <linearGradient
       id="linearGradient13"
       inkscape:collect="always">
      <stop
         style="stop-color:#ffffff;stop-opacity:1;"
         offset="0"
         id="stop13" />
      <stop
         style="stop-color:#ffffff;stop-opacity:0;"
         offset="1"
         id="stop14" />
    </linearGradient>
    <linearGradient
       inkscape:collect="always"
       xlink:href="#linearGradient13"
       id="linearGradient14"
       x1="-68.217163"
       y1="-47.594925"
       x2="-68.217163"
       y2="-50.569374"
       gradientUnits="userSpaceOnUse"
       gradientTransform="matrix(0.35116535,0,0,0.35116535,-48.092386,-62.346167)" />
    <filter
       inkscape:collect="always"
       style="color-interpolation-filters:sRGB"
       id="filter16"
       x="-0.073890339"
       y="-0.46968598"
       width="1.1477807"
       height="1.939372">
      <feGaussianBlur
         inkscape:collect="always"
         stdDeviation="1.2115908"
         id="feGaussianBlur16" />
    </filter>
    <linearGradient
       inkscape:collect="always"
       xlink:href="#linearGradient13"
       id="linearGradient20"
       gradientUnits="userSpaceOnUse"
       x1="-68.217163"
       y1="-47.594925"
       x2="-68.217163"
       y2="-50.569374"
       gradientTransform="matrix(0.35116535,0,0,0.35116535,-72.833244,-62.346167)" />
    <linearGradient
       inkscape:collect="always"
       xlink:href="#linearGradient13"
       id="linearGradient27"
       gradientUnits="userSpaceOnUse"
       gradientTransform="matrix(0.35116535,0,0,0.35116535,-72.833244,-73.457021)"
       x1="-68.217163"
       y1="-47.594925"
       x2="-68.217163"
       y2="-50.569374" />
    <linearGradient
       inkscape:collect="always"
       xlink:href="#linearGradient13"
       id="linearGradient28"
       gradientUnits="userSpaceOnUse"
       x1="-68.217163"
       y1="-47.594925"
       x2="-68.217163"
       y2="-50.569374"
       gradientTransform="matrix(0.35116535,0,0,0.35116535,-48.092386,-73.457021)" />
    <filter
       inkscape:collect="always"
       style="color-interpolation-filters:sRGB"
       id="filter29"
       x="-0.27531976"
       y="-0.27406314"
       width="1.5507037"
       height="1.5479496">
      <feGaussianBlur
         inkscape:collect="always"
         stdDeviation="0.86509854"
         id="feGaussianBlur29" />
    </filter>
    <filter
       inkscape:collect="always"
       style="color-interpolation-filters:sRGB"
       id="filter30"
       x="-0.69866835"
       y="-0.63524681"
       width="2.3974043"
       height="2.2704947">
      <feGaussianBlur
         inkscape:collect="always"
         stdDeviation="0.86509854"
         id="feGaussianBlur30" />
    </filter>
    <filter
       inkscape:collect="always"
       style="color-interpolation-filters:sRGB"
       id="filter31"
       x="-0.087762675"
       y="-0.25405818"
       width="1.1755254"
       height="1.5081164">
      <feGaussianBlur
         inkscape:collect="always"
         stdDeviation="0.86509854"
         id="feGaussianBlur31" />
    </filter>
    <filter
       inkscape:collect="always"
       style="color-interpolation-filters:sRGB"
       id="filter32"
       x="-0.6879542"
       y="-0.77614596"
       width="2.3762124"
       height="2.5526847">
      <feGaussianBlur
         inkscape:collect="always"
         stdDeviation="0.31692865"
         id="feGaussianBlur32" />
    </filter>
    <filter
       inkscape:collect="always"
       style="color-interpolation-filters:sRGB"
       id="filter33"
       x="-0.28505612"
       y="-0.28375296"
       width="1.5701764"
       height="1.5673292">
      <feGaussianBlur
         inkscape:collect="always"
         stdDeviation="0.31692865"
         id="feGaussianBlur33" />
    </filter>
    <filter
       inkscape:collect="always"
       style="color-interpolation-filters:sRGB"
       id="filter34"
       x="-0.082916494"
       y="-0.27024072"
       width="1.165833"
       height="1.5404814">
      <feGaussianBlur
         inkscape:collect="always"
         stdDeviation="0.31692865"
         id="feGaussianBlur34" />
    </filter>
    <linearGradient
       inkscape:collect="always"
       xlink:href="#linearGradient13"
       id="linearGradient10"
       gradientUnits="userSpaceOnUse"
       gradientTransform="matrix(0.35116535,0,0,0.35116535,-69.259054,-102.03203)"
       x1="-68.217163"
       y1="-47.594925"
       x2="-68.217163"
       y2="-50.569374" />
    <linearGradient
       inkscape:collect="always"
       xlink:href="#linearGradient13"
       id="linearGradient11"
       gradientUnits="userSpaceOnUse"
       gradientTransform="matrix(0.35116535,0,0,0.35116535,-69.259054,-94.096169)"
       x1="-68.217163"
       y1="-47.594925"
       x2="-68.217163"
       y2="-50.569374" />
    <linearGradient
       inkscape:collect="always"
       xlink:href="#linearGradient13"
       id="linearGradient35"
       gradientUnits="userSpaceOnUse"
       gradientTransform="matrix(0.35116535,0,0,0.35116535,-48.092386,-102.03203)"
       x1="-68.217163"
       y1="-47.594925"
       x2="-68.217163"
       y2="-50.569374" />
    <linearGradient
       inkscape:collect="always"
       xlink:href="#linearGradient13"
       id="linearGradient36"
       gradientUnits="userSpaceOnUse"
       gradientTransform="matrix(0.35116535,0,0,0.35116535,-48.092386,-94.096169)"
       x1="-68.217163"
       y1="-47.594925"
       x2="-68.217163"
       y2="-50.569374" />
  </defs>
  <g
     inkscape:label="Layer 1"
     inkscape:groupmode="layer"
     id="layer1">
    <rect
       style="fill:#256530;fill-opacity:1;stroke-width:0.145031;stroke-linecap:round;stroke-linejoin:round"
       id="rect1"
       width="17.119339"
       height="5.8268952"
       x="60.384209"
       y="78.798462"
       ry="2.9134476"
       inkscape:export-filename="play-button.png"
       inkscape:export-xdpi="96"
       inkscape:export-ydpi="96" />
    <rect
       style="mix-blend-mode:normal;fill:#09bc27;fill-opacity:1;stroke-width:0.237199;stroke-linecap:round;stroke-linejoin:round;filter:url(#filter16)"
       id="rect15"
       width="39.353153"
       height="6.1909828"
       x="-78.315147"
       y="-61.978062"
       ry="3.0954914"
       transform="matrix(-0.3256393,0,0,-0.3256393,49.833058,63.849205)"
       rx="0" />
    <rect
       style="fill:url(#linearGradient14);stroke-width:0.0832959;stroke-linecap:round;stroke-linejoin:round"
       id="rect12"
       width="14.267159"
       height="2.1740572"
       x="-76.041656"
       y="-81.184174"
       ry="0.98942971"
       transform="scale(-1)" />
    <text
       xml:space="preserve"
       style="font-size:3.53209px;font-family:'Nimbus Sans';-inkscape-font-specification:'Nimbus Sans';fill:#ffffff;fill-opacity:1;stroke-width:0.459451;stroke-linecap:round;stroke-linejoin:round"
       x="62.220711"
       y="82.940071"
       id="text16"><tspan
         sodipodi:role="line"
         id="tspan16"
         style="font-style:normal;font-variant:normal;font-weight:normal;font-stretch:normal;font-family:'Comic Sans MS';-inkscape-font-specification:'Comic Sans MS';fill:#ffffff;fill-opacity:1;stroke-width:0.459451"
         x="62.220711"
         y="82.940071">PLAY</tspan></text>
    <path
       id="path16"
       style="fill:none;stroke:#ffffff;stroke-width:0.303407;stroke-linecap:round;stroke-linejoin:round;stroke-dasharray:none"
       inkscape:transform-center-x="-0.20013015"
       d="m 72.991645,82.29978 c -0.06313,-0.436259 -0.09471,-0.885474 0,-1.386545 0.478987,0.245983 0.849249,0.454741 1.200782,0.693273 -0.378363,0.261469 -0.761673,0.516075 -1.200782,0.693272 z"
       sodipodi:nodetypes="cccc" />
    <path
       id="path17"
       style="fill:none;stroke:#ffffff;stroke-width:0.324798;stroke-linecap:round;stroke-linejoin:round"
       d="m 75.016889,81.64538 c -0.100212,0.880786 -0.76231,1.77001 -1.613948,1.613948 -0.822376,-0.150701 -1.659717,-0.803563 -1.613947,-1.613948 0.04416,-0.781796 0.780812,-1.523078 1.613947,-1.613947 0.886104,-0.09665 1.714714,0.728302 1.613948,1.613947 z"
       sodipodi:nodetypes="sssss" />
    <rect
       style="fill:#652825;fill-opacity:1;stroke-width:0.145031;stroke-linecap:round;stroke-linejoin:round"
       id="rect17"
       width="17.119339"
       height="5.8268952"
       x="85.125069"
       y="78.798462"
       ry="2.9134476"
       inkscape:export-filename="stop-button.png"
       inkscape:export-xdpi="96"
       inkscape:export-ydpi="96" />
    <rect
       style="mix-blend-mode:normal;fill:#bc0d09;fill-opacity:1;stroke-width:0.237199;stroke-linecap:round;stroke-linejoin:round;filter:url(#filter16)"
       id="rect18"
       width="39.353153"
       height="6.1909828"
       x="-78.315147"
       y="-61.978062"
       ry="3.0954914"
       transform="matrix(-0.3256393,0,0,-0.3256393,74.573915,63.849205)"
       rx="0" />
    <rect
       style="fill:url(#linearGradient20);stroke-width:0.0832959;stroke-linecap:round;stroke-linejoin:round"
       id="rect19"
       width="14.267159"
       height="2.1740572"
       x="-100.78252"
       y="-81.184174"
       ry="0.98942971"
       transform="scale(-1)" />
    <text
       xml:space="preserve"
       style="font-size:3.53209px;font-family:'Nimbus Sans';-inkscape-font-specification:'Nimbus Sans';fill:#ffffff;fill-opacity:1;stroke-width:0.459451;stroke-linecap:round;stroke-linejoin:round"
       x="86.404099"
       y="82.940071"
       id="text19"><tspan
         sodipodi:role="line"
         id="tspan19"
         style="font-style:normal;font-variant:normal;font-weight:normal;font-stretch:normal;font-family:'Comic Sans MS';-inkscape-font-specification:'Comic Sans MS';fill:#ffffff;fill-opacity:1;stroke-width:0.459451"
         x="86.404099"
         y="82.940071">STOP</tspan></text>
    <path
       id="path20"
       style="fill:none;stroke:#ffffff;stroke-width:0.324798;stroke-linecap:round;stroke-linejoin:round"
       d="m 99.757746,81.64538 c -0.100212,0.880786 -0.76231,1.77001 -1.613946,1.613948 -0.822376,-0.150701 -1.659716,-0.803563 -1.613949,-1.613948 0.04416,-0.781796 0.780813,-1.523078 1.613949,-1.613947 0.886103,-0.09665 1.714712,0.728302 1.613946,1.613947 z"
       sodipodi:nodetypes="sssss" />
    <path
       style="fill:none;fill-opacity:1;stroke:#ffffff;stroke-width:0.304396;stroke-linecap:round;stroke-linejoin:round;stroke-dasharray:none;stroke-opacity:1"
       d="m 97.636855,81.075777 c -0.05016,0.478289 -0.01089,0.734189 -0.0021,1.066104 0.451872,0.128024 0.870985,0.0691 1.294318,0.03428 0.01022,-0.363382 0.03161,-0.726764 -0.06146,-1.090145 -0.445158,-0.05448 -0.843826,-0.0484 -1.208943,-0.02221 z"
       id="path21"
       sodipodi:nodetypes="cccccc" />
    <rect
       style="fill:#40ae53;fill-opacity:1;stroke-width:0.145031;stroke-linecap:round;stroke-linejoin:round"
       id="rect21"
       width="17.119339"
       height="5.8268952"
       x="60.384209"
       y="89.909317"
       ry="2.9134476"
       inkscape:export-filename="play-button-active.png"
       inkscape:export-xdpi="96"
       inkscape:export-ydpi="96" />
    <rect
       style="mix-blend-mode:normal;fill:#0cf032;fill-opacity:1;stroke-width:0.237199;stroke-linecap:round;stroke-linejoin:round;filter:url(#filter16)"
       id="rect22"
       width="39.353153"
       height="6.1909828"
       x="-78.315147"
       y="-61.978062"
       ry="3.0954914"
       transform="matrix(-0.3256393,0,0,-0.3256393,49.833058,74.96006)"
       rx="0" />
    <rect
       style="fill:url(#linearGradient28);stroke-width:0.0832959;stroke-linecap:round;stroke-linejoin:round"
       id="rect23"
       width="14.267159"
       height="2.1740572"
       x="-76.041656"
       y="-92.295029"
       ry="0.98942971"
       transform="scale(-1)" />
    <text
       xml:space="preserve"
       style="font-size:3.53209px;font-family:'Nimbus Sans';-inkscape-font-specification:'Nimbus Sans';fill:#ffffff;fill-opacity:1;stroke-width:0.459451;stroke-linecap:round;stroke-linejoin:round"
       x="62.220711"
       y="94.050926"
       id="text23"><tspan
         sodipodi:role="line"
         id="tspan23"
         style="font-style:normal;font-variant:normal;font-weight:normal;font-stretch:normal;font-family:'Comic Sans MS';-inkscape-font-specification:'Comic Sans MS';fill:#ffffff;fill-opacity:1;stroke-width:0.459451"
         x="62.220711"
         y="94.050926">PLAY</tspan></text>
    <path
       id="path23"
       style="fill:none;stroke:#ffffff;stroke-width:0.303407;stroke-linecap:round;stroke-linejoin:round;stroke-dasharray:none"
       inkscape:transform-center-x="-0.20013015"
       d="m 72.991645,93.410634 c -0.06313,-0.436259 -0.09471,-0.885474 0,-1.386545 0.478987,0.245983 0.849249,0.45474 1.200782,0.693272 -0.378363,0.261469 -0.761673,0.516076 -1.200782,0.693273 z"
       sodipodi:nodetypes="cccc" />
    <path
       id="path24"
       style="fill:none;stroke:#ffffff;stroke-width:0.324798;stroke-linecap:round;stroke-linejoin:round"
       d="m 75.016889,92.756234 c -0.100212,0.880786 -0.76231,1.770009 -1.613948,1.613947 -0.822376,-0.1507 -1.659717,-0.803562 -1.613947,-1.613947 0.04416,-0.781797 0.780812,-1.523079 1.613947,-1.613948 0.886104,-0.09665 1.714714,0.728303 1.613948,1.613948 z"
       sodipodi:nodetypes="sssss" />
    <rect
       style="fill:#e35c56;fill-opacity:1;stroke-width:0.145031;stroke-linecap:round;stroke-linejoin:round"
       id="rect24"
       width="17.119339"
       height="5.8268952"
       x="85.125069"
       y="89.909317"
       ry="2.9134476"
       inkscape:export-filename="stop-button-active.png"
       inkscape:export-xdpi="96"
       inkscape:export-ydpi="96" />
    <rect
       style="mix-blend-mode:normal;fill:#ff120c;fill-opacity:1;stroke-width:0.237199;stroke-linecap:round;stroke-linejoin:round;filter:url(#filter16)"
       id="rect25"
       width="39.353153"
       height="6.1909828"
       x="-78.315147"
       y="-61.978062"
       ry="3.0954914"
       transform="matrix(-0.3256393,0,0,-0.3256393,74.573915,74.96006)"
       rx="0" />
    <rect
       style="fill:url(#linearGradient27);stroke-width:0.0832959;stroke-linecap:round;stroke-linejoin:round"
       id="rect26"
       width="14.267159"
       height="2.1740572"
       x="-100.78252"
       y="-92.295029"
       ry="0.98942971"
       transform="scale(-1)" />
    <text
       xml:space="preserve"
       style="font-size:3.53209px;font-family:'Nimbus Sans';-inkscape-font-specification:'Nimbus Sans';fill:#ffffff;fill-opacity:1;stroke-width:0.459451;stroke-linecap:round;stroke-linejoin:round"
       x="86.404099"
       y="94.050926"
       id="text26"><tspan
         sodipodi:role="line"
         id="tspan26"
         style="font-style:normal;font-variant:normal;font-weight:normal;font-stretch:normal;font-family:'Comic Sans MS';-inkscape-font-specification:'Comic Sans MS';fill:#ffffff;fill-opacity:1;stroke-width:0.459451"
         x="86.404099"
         y="94.050926">STOP</tspan></text>
    <path
       id="path26"
       style="fill:none;stroke:#ffffff;stroke-width:0.324798;stroke-linecap:round;stroke-linejoin:round"
       d="m 99.757746,92.756234 c -0.100212,0.880786 -0.76231,1.770009 -1.613946,1.613947 -0.822376,-0.1507 -1.659716,-0.803562 -1.613949,-1.613947 0.04416,-0.781797 0.780813,-1.523079 1.613949,-1.613948 0.886103,-0.09665 1.714712,0.728303 1.613946,1.613948 z"
       sodipodi:nodetypes="sssss" />
    <path
       style="fill:none;fill-opacity:1;stroke:#ffffff;stroke-width:0.304396;stroke-linecap:round;stroke-linejoin:round;stroke-dasharray:none;stroke-opacity:1"
       d="m 97.636855,92.186631 c -0.05016,0.478288 -0.01089,0.734188 -0.0021,1.066103 0.451872,0.128024 0.870985,0.0691 1.294318,0.03428 0.01022,-0.363382 0.03161,-0.726763 -0.06146,-1.090145 -0.445158,-0.05448 -0.843826,-0.0484 -1.208943,-0.02221 z"
       id="path27"
       sodipodi:nodetypes="cccccc" />
    <text
       xml:space="preserve"
       style="font-size:10.0582px;font-family:'Nimbus Sans';-inkscape-font-specification:'Nimbus Sans';mix-blend-mode:normal;fill:#ffffff;fill-opacity:1;stroke-width:1.30836;stroke-linecap:round;stroke-linejoin:round;filter:url(#filter31)"
       x="40.232689"
       y="90.284416"
       id="text28"
       transform="matrix(0.35116535,0,0,0.35116535,48.092387,62.346167)"><tspan
         sodipodi:role="line"
         id="tspan28"
         style="font-style:normal;font-variant:normal;font-weight:normal;font-stretch:normal;font-family:'Comic Sans MS';-inkscape-font-specification:'Comic Sans MS';fill:#ffffff;fill-opacity:1;stroke-width:1.30836"
         x="40.232689"
         y="90.284416">PLAY</tspan></text>
    <path
       id="path28"
       style="mix-blend-mode:normal;fill:none;stroke:#ffffff;stroke-width:0.864;stroke-linecap:round;stroke-linejoin:round;stroke-dasharray:none;filter:url(#filter30)"
       inkscape:transform-center-x="-0.20013148"
       d="m 70.904656,88.461084 c -0.179775,-1.242316 -0.269695,-2.521529 0,-3.94841 1.363995,0.700476 2.418376,1.294947 3.419424,1.974205 -1.077451,0.744576 -2.168987,1.46961 -3.419424,1.974205 z"
       sodipodi:nodetypes="cccc"
       transform="matrix(0.35116535,0,0,0.35116535,48.092387,62.346167)" />
    <path
       id="path29"
       style="mix-blend-mode:normal;fill:none;stroke:#ffffff;stroke-width:0.924914;stroke-linecap:round;stroke-linejoin:round;filter:url(#filter29)"
       d="m 76.671868,86.597575 c -0.285372,2.508181 -2.170801,5.040388 -4.595977,4.595976 -2.34185,-0.429143 -4.726312,-2.288274 -4.595975,-4.595976 0.125739,-2.226292 2.223488,-4.337211 4.595975,-4.595976 2.523324,-0.275217 4.882923,2.073959 4.595977,4.595976 z"
       sodipodi:nodetypes="sssss"
       transform="matrix(0.35116535,0,0,0.35116535,48.092387,62.346167)" />
    <text
       xml:space="preserve"
       style="font-size:3.53209px;font-family:'Nimbus Sans';-inkscape-font-specification:'Nimbus Sans';fill:#ffffff;fill-opacity:1;stroke-width:0.459451;stroke-linecap:round;stroke-linejoin:round;filter:url(#filter34)"
       x="86.404099"
       y="94.050926"
       id="text31"><tspan
         sodipodi:role="line"
         id="tspan31"
         style="font-style:normal;font-variant:normal;font-weight:normal;font-stretch:normal;font-family:'Comic Sans MS';-inkscape-font-specification:'Comic Sans MS';fill:#ffffff;fill-opacity:1;stroke-width:0.459451"
         x="86.404099"
         y="94.050926">STOP</tspan></text>
    <path
       id="path31"
       style="fill:none;stroke:#ffffff;stroke-width:0.324798;stroke-linecap:round;stroke-linejoin:round;filter:url(#filter33)"
       d="m 99.757746,92.756234 c -0.100212,0.880786 -0.76231,1.770009 -1.613946,1.613947 -0.822376,-0.1507 -1.659716,-0.803562 -1.613949,-1.613947 0.04416,-0.781797 0.780813,-1.523079 1.613949,-1.613948 0.886103,-0.09665 1.714712,0.728303 1.613946,1.613948 z"
       sodipodi:nodetypes="sssss" />
    <path
       style="fill:none;fill-opacity:1;stroke:#ffffff;stroke-width:0.304396;stroke-linecap:round;stroke-linejoin:round;stroke-dasharray:none;stroke-opacity:1;filter:url(#filter32)"
       d="m 97.636855,92.186631 c -0.05016,0.478288 -0.01089,0.734188 -0.0021,1.066103 0.451872,0.128024 0.870985,0.0691 1.294318,0.03428 0.01022,-0.363382 0.03161,-0.726763 -0.06146,-1.090145 -0.445158,-0.05448 -0.843826,-0.0484 -1.208943,-0.02221 z"
       id="path32"
       sodipodi:nodetypes="cccccc" />
    <rect
       style="fill:#254a65;fill-opacity:1;stroke-width:0.145031;stroke-linecap:round;stroke-linejoin:round"
       id="rect2"
       width="17.119339"
       height="5.8268952"
       x="81.550865"
       y="110.54845"
       ry="2.9134476"
       inkscape:export-filename="next-button.png"
       inkscape:export-xdpi="96"
       inkscape:export-ydpi="96" />
    <rect
       style="mix-blend-mode:normal;fill:#09a4bc;fill-opacity:1;stroke-width:0.237199;stroke-linecap:round;stroke-linejoin:round;filter:url(#filter16)"
       id="rect3"
       width="39.353153"
       height="6.1909828"
       x="-78.315147"
       y="-61.978062"
       ry="3.0954914"
       transform="matrix(-0.3256393,0,0,-0.3256393,70.999726,95.599207)"
       rx="0" />
    <rect
       style="fill:url(#linearGradient11);stroke-width:0.0832959;stroke-linecap:round;stroke-linejoin:round"
       id="rect4"
       width="14.267159"
       height="2.1740572"
       x="-97.208313"
       y="-112.93415"
       ry="0.98942971"
       transform="scale(-1)" />
    <text
       xml:space="preserve"
       style="font-size:3.53209px;font-family:'Nimbus Sans';-inkscape-font-specification:'Nimbus Sans';fill:#ffffff;fill-opacity:1;stroke-width:0.459451;stroke-linecap:round;stroke-linejoin:round"
       x="83.387367"
       y="114.69006"
       id="text4"><tspan
         sodipodi:role="line"
         id="tspan4"
         style="font-style:normal;font-variant:normal;font-weight:normal;font-stretch:normal;font-family:'Comic Sans MS';-inkscape-font-specification:'Comic Sans MS';fill:#ffffff;fill-opacity:1;stroke-width:0.459451"
         x="83.387367"
         y="114.69006">NEXT</tspan></text>
    <path
       id="path4"
       style="fill:none;stroke:#ffffff;stroke-width:0.303407;stroke-linecap:round;stroke-linejoin:round;stroke-dasharray:none"
       inkscape:transform-center-x="-0.20013015"
       d="m 95.216647,114.04979 c -0.06313,-0.43626 -0.09471,-0.88548 0,-1.38655 0.478987,0.24599 0.849249,0.45474 1.200782,0.69328 -0.378363,0.26146 -0.761673,0.51607 -1.200782,0.69327 z"
       sodipodi:nodetypes="cccc" />
    <path
       id="path5"
       style="fill:none;stroke:#ffffff;stroke-width:0.324798;stroke-linecap:round;stroke-linejoin:round"
       d="m 97.241891,113.39539 c -0.100212,0.88078 -0.76231,1.77001 -1.613948,1.61395 -0.822376,-0.15071 -1.659717,-0.80357 -1.613947,-1.61395 0.04416,-0.7818 0.780812,-1.52308 1.613947,-1.61395 0.886104,-0.0966 1.714714,0.7283 1.613948,1.61395 z"
       sodipodi:nodetypes="sssss" />
    <rect
       style="fill:#40adae;fill-opacity:1;stroke-width:0.145031;stroke-linecap:round;stroke-linejoin:round"
       id="rect5"
       width="17.119339"
       height="5.8268952"
       x="81.550865"
       y="118.48431"
       ry="2.9134476"
       inkscape:export-filename="next-button-active.png"
       inkscape:export-xdpi="96"
       inkscape:export-ydpi="96" />
    <rect
       style="mix-blend-mode:normal;fill:#0cf0ea;fill-opacity:1;stroke-width:0.237199;stroke-linecap:round;stroke-linejoin:round;filter:url(#filter16)"
       id="rect6"
       width="39.353153"
       height="6.1909828"
       x="-78.315147"
       y="-61.978062"
       ry="3.0954914"
       transform="matrix(-0.3256393,0,0,-0.3256393,70.999726,103.53507)"
       rx="0" />
    <rect
       style="fill:url(#linearGradient10);stroke-width:0.0832959;stroke-linecap:round;stroke-linejoin:round"
       id="rect7"
       width="14.267159"
       height="2.1740572"
       x="-97.208313"
       y="-120.87002"
       ry="0.98942971"
       transform="scale(-1)" />
    <text
       xml:space="preserve"
       style="font-size:3.53209px;font-family:'Nimbus Sans';-inkscape-font-specification:'Nimbus Sans';fill:#ffffff;fill-opacity:1;stroke-width:0.459451;stroke-linecap:round;stroke-linejoin:round"
       x="83.387367"
       y="122.62591"
       id="text7"><tspan
         sodipodi:role="line"
         id="tspan7"
         style="font-style:normal;font-variant:normal;font-weight:normal;font-stretch:normal;font-family:'Comic Sans MS';-inkscape-font-specification:'Comic Sans MS';fill:#ffffff;fill-opacity:1;stroke-width:0.459451"
         x="83.387367"
         y="122.62591">NEXT</tspan></text>
    <path
       id="path7"
       style="fill:none;stroke:#ffffff;stroke-width:0.303407;stroke-linecap:round;stroke-linejoin:round;stroke-dasharray:none"
       inkscape:transform-center-x="-0.20013015"
       d="m 95.216647,121.98566 c -0.06313,-0.43626 -0.09471,-0.88548 0,-1.38655 0.478987,0.24599 0.849249,0.45474 1.200782,0.69327 -0.378363,0.26147 -0.761673,0.51608 -1.200782,0.69328 z"
       sodipodi:nodetypes="cccc" />
    <path
       id="path8"
       style="fill:none;stroke:#ffffff;stroke-width:0.324798;stroke-linecap:round;stroke-linejoin:round"
       d="m 97.241891,121.33126 c -0.100212,0.88078 -0.76231,1.77001 -1.613948,1.61394 -0.822376,-0.1507 -1.659717,-0.80356 -1.613947,-1.61394 0.04416,-0.7818 0.780812,-1.52308 1.613947,-1.61395 0.886104,-0.0967 1.714714,0.7283 1.613948,1.61395 z"
       sodipodi:nodetypes="sssss" />
    <text
       xml:space="preserve"
       style="font-size:10.0582px;font-family:'Nimbus Sans';-inkscape-font-specification:'Nimbus Sans';mix-blend-mode:normal;fill:#ffffff;fill-opacity:1;stroke-width:1.30836;stroke-linecap:round;stroke-linejoin:round;filter:url(#filter31)"
       x="40.232689"
       y="90.284416"
       id="text8"
       transform="matrix(0.35116535,0,0,0.35116535,69.259055,90.921167)"><tspan
         sodipodi:role="line"
         id="tspan8"
         style="font-style:normal;font-variant:normal;font-weight:normal;font-stretch:normal;font-family:'Comic Sans MS';-inkscape-font-specification:'Comic Sans MS';fill:#ffffff;fill-opacity:1;stroke-width:1.30836"
         x="40.232689"
         y="90.284416">NEXT</tspan></text>
    <path
       id="path9"
       style="mix-blend-mode:normal;fill:none;stroke:#ffffff;stroke-width:0.864;stroke-linecap:round;stroke-linejoin:round;stroke-dasharray:none;filter:url(#filter30)"
       inkscape:transform-center-x="-0.20013148"
       d="m 70.904656,88.461084 c -0.179775,-1.242316 -0.269695,-2.521529 0,-3.94841 1.363995,0.700476 2.418376,1.294947 3.419424,1.974205 -1.077451,0.744576 -2.168987,1.46961 -3.419424,1.974205 z"
       sodipodi:nodetypes="cccc"
       transform="matrix(0.35116535,0,0,0.35116535,70.317389,90.92117)" />
    <path
       id="path10"
       style="mix-blend-mode:normal;fill:none;stroke:#ffffff;stroke-width:0.924914;stroke-linecap:round;stroke-linejoin:round;filter:url(#filter29)"
       d="m 76.671868,86.597575 c -0.285372,2.508181 -2.170801,5.040388 -4.595977,4.595976 -2.34185,-0.429143 -4.726312,-2.288274 -4.595975,-4.595976 0.125739,-2.226292 2.223488,-4.337211 4.595975,-4.595976 2.523324,-0.275217 4.882923,2.073959 4.595977,4.595976 z"
       sodipodi:nodetypes="sssss"
       transform="matrix(0.35116535,0,0,0.35116535,70.317389,90.92117)" />
    <rect
       style="fill:#572565;fill-opacity:1;stroke-width:0.145031;stroke-linecap:round;stroke-linejoin:round"
       id="rect13"
       width="17.119339"
       height="5.8268952"
       x="60.384209"
       y="110.54845"
       ry="2.9134476"
       inkscape:export-filename="prev-button.png"
       inkscape:export-xdpi="96"
       inkscape:export-ydpi="96" />
    <rect
       style="mix-blend-mode:normal;fill:#8209bc;fill-opacity:1;stroke-width:0.237199;stroke-linecap:round;stroke-linejoin:round;filter:url(#filter16)"
       id="rect14"
       width="39.353153"
       height="6.1909828"
       x="-78.315147"
       y="-61.978062"
       ry="3.0954914"
       transform="matrix(-0.3256393,0,0,-0.3256393,49.833058,95.599207)"
       rx="0" />
    <rect
       style="fill:url(#linearGradient36);stroke-width:0.0832959;stroke-linecap:round;stroke-linejoin:round"
       id="rect16"
       width="14.267159"
       height="2.1740572"
       x="-76.041656"
       y="-112.93415"
       ry="0.98942971"
       transform="scale(-1)" />
    <text
       xml:space="preserve"
       style="font-size:3.53209px;font-family:'Nimbus Sans';-inkscape-font-specification:'Nimbus Sans';fill:#ffffff;fill-opacity:1;stroke-width:0.459451;stroke-linecap:round;stroke-linejoin:round"
       x="65.924873"
       y="114.69006"
       id="text17"><tspan
         sodipodi:role="line"
         id="tspan17"
         style="font-style:normal;font-variant:normal;font-weight:normal;font-stretch:normal;font-family:'Comic Sans MS';-inkscape-font-specification:'Comic Sans MS';fill:#ffffff;fill-opacity:1;stroke-width:0.459451"
         x="65.924873"
         y="114.69006">PREV</tspan></text>
    <path
       id="path18"
       style="fill:none;stroke:#ffffff;stroke-width:0.303407;stroke-linecap:round;stroke-linejoin:round;stroke-dasharray:none"
       inkscape:transform-center-x="0.20012989"
       d="m 63.766825,114.04979 c 0.06313,-0.43626 0.09471,-0.88548 0,-1.38655 -0.478987,0.24599 -0.849249,0.45474 -1.200782,0.69328 0.378363,0.26146 0.761673,0.51607 1.200782,0.69327 z"
       sodipodi:nodetypes="cccc" />
    <path
       id="path19"
       style="fill:none;stroke:#ffffff;stroke-width:0.324798;stroke-linecap:round;stroke-linejoin:round"
       d="m 61.741581,113.39539 c 0.100212,0.88078 0.76231,1.77001 1.613948,1.61395 0.822376,-0.15071 1.659717,-0.80357 1.613947,-1.61395 -0.04416,-0.7818 -0.780812,-1.52308 -1.613947,-1.61395 -0.886104,-0.0966 -1.714714,0.7283 -1.613948,1.61395 z"
       sodipodi:nodetypes="sssss" />
    <rect
       style="fill:#9f40ae;fill-opacity:1;stroke-width:0.145031;stroke-linecap:round;stroke-linejoin:round"
       id="rect20"
       width="17.119339"
       height="5.8268952"
       x="60.384209"
       y="118.48431"
       ry="2.9134476"
       inkscape:export-filename="prev-button-active.png"
       inkscape:export-xdpi="96"
       inkscape:export-ydpi="96" />
    <rect
       style="mix-blend-mode:normal;fill:#ce0cf0;fill-opacity:1;stroke-width:0.237199;stroke-linecap:round;stroke-linejoin:round;filter:url(#filter16)"
       id="rect27"
       width="39.353153"
       height="6.1909828"
       x="-78.315147"
       y="-61.978062"
       ry="3.0954914"
       transform="matrix(-0.3256393,0,0,-0.3256393,49.833058,103.53507)"
       rx="0" />
    <rect
       style="fill:url(#linearGradient35);stroke-width:0.0832959;stroke-linecap:round;stroke-linejoin:round"
       id="rect28"
       width="14.267159"
       height="2.1740572"
       x="-76.041656"
       y="-120.87002"
       ry="0.98942971"
       transform="scale(-1)" />
    <text
       xml:space="preserve"
       style="font-size:3.53209px;font-family:'Nimbus Sans';-inkscape-font-specification:'Nimbus Sans';fill:#ffffff;fill-opacity:1;stroke-width:0.459451;stroke-linecap:round;stroke-linejoin:round"
       x="65.924873"
       y="122.62591"
       id="text29"><tspan
         sodipodi:role="line"
         id="tspan29"
         style="font-style:normal;font-variant:normal;font-weight:normal;font-stretch:normal;font-family:'Comic Sans MS';-inkscape-font-specification:'Comic Sans MS';fill:#ffffff;fill-opacity:1;stroke-width:0.459451"
         x="65.924873"
         y="122.62591">PREV</tspan></text>
    <path
       id="path30"
       style="fill:none;stroke:#ffffff;stroke-width:0.303407;stroke-linecap:round;stroke-linejoin:round;stroke-dasharray:none"
       inkscape:transform-center-x="0.20012989"
       d="m 63.766825,121.98566 c 0.06313,-0.43626 0.09471,-0.88548 0,-1.38655 -0.478987,0.24599 -0.849249,0.45474 -1.200782,0.69327 0.378363,0.26147 0.761673,0.51608 1.200782,0.69328 z"
       sodipodi:nodetypes="cccc" />
    <path
       id="path33"
       style="fill:none;stroke:#ffffff;stroke-width:0.324798;stroke-linecap:round;stroke-linejoin:round"
       d="m 61.741581,121.33126 c 0.100212,0.88078 0.76231,1.77001 1.613948,1.61394 0.822376,-0.1507 1.659717,-0.80356 1.613947,-1.61394 -0.04416,-0.7818 -0.780812,-1.52308 -1.613947,-1.61395 -0.886104,-0.0967 -1.714714,0.7283 -1.613948,1.61395 z"
       sodipodi:nodetypes="sssss" />
    <text
       xml:space="preserve"
       style="font-size:10.0582px;font-family:'Nimbus Sans';-inkscape-font-specification:'Nimbus Sans';mix-blend-mode:normal;fill:#ffffff;fill-opacity:1;stroke-width:1.30836;stroke-linecap:round;stroke-linejoin:round;filter:url(#filter31)"
       x="40.232689"
       y="90.284416"
       id="text33"
       transform="matrix(0.35116535,0,0,0.35116535,51.796556,90.921167)"><tspan
         sodipodi:role="line"
         id="tspan33"
         style="font-style:normal;font-variant:normal;font-weight:normal;font-stretch:normal;font-family:'Comic Sans MS';-inkscape-font-specification:'Comic Sans MS';fill:#ffffff;fill-opacity:1;stroke-width:1.30836"
         x="40.232689"
         y="90.284416">PREV</tspan></text>
    <path
       id="path34"
       style="mix-blend-mode:normal;fill:none;stroke:#ffffff;stroke-width:0.864;stroke-linecap:round;stroke-linejoin:round;stroke-dasharray:none;filter:url(#filter30)"
       inkscape:transform-center-x="0.20013122"
       d="m 70.904656,88.461084 c -0.179775,-1.242316 -0.269695,-2.521529 0,-3.94841 1.363995,0.700476 2.418376,1.294947 3.419424,1.974205 -1.077451,0.744576 -2.168987,1.46961 -3.419424,1.974205 z"
       sodipodi:nodetypes="cccc"
       transform="matrix(-0.35116535,0,0,0.35116535,88.666083,90.92117)" />
    <path
       id="path35"
       style="mix-blend-mode:normal;fill:none;stroke:#ffffff;stroke-width:0.924914;stroke-linecap:round;stroke-linejoin:round;filter:url(#filter29)"
       d="m 76.671868,86.597575 c -0.285372,2.508181 -2.170801,5.040388 -4.595977,4.595976 -2.34185,-0.429143 -4.726312,-2.288274 -4.595975,-4.595976 0.125739,-2.226292 2.223488,-4.337211 4.595975,-4.595976 2.523324,-0.275217 4.882923,2.073959 4.595977,4.595976 z"
       sodipodi:nodetypes="sssss"
       transform="matrix(-0.35116535,0,0,0.35116535,88.666083,90.92117)" />
  </g>
</svg>
